<svg width="24" height="30" viewBox="0 0 24 30" fill="none" xmlns="http://www.w3.org/2000/svg">
<path d="M1.2 7.5C0.825 7.075 0.53125 6.6125 0.31875 6.1125C0.10625 5.6125 0 5.075 0 4.5C0 3.25 0.4375 2.1875 1.3125 1.3125C2.1875 0.4375 3.25 0 4.5 0C5.75 0 6.8125 0.4375 7.6875 1.3125C8.5625 2.1875 9 3.25 9 4.5C9 5.075 8.89375 5.6125 8.68125 6.1125C8.46875 6.6125 8.175 7.075 7.8 7.5H1.2ZM9 30C7.35 30 5.9375 29.4125 4.7625 28.2375C3.5875 27.0625 3 25.65 3 24H1.5L0 9H9L7.5 24H6C6 24.825 6.29375 25.5312 6.88125 26.1187C7.46875 26.7062 8.175 27 9 27C9.825 27 10.5312 26.7062 11.1187 26.1187C11.7062 25.5312 12 24.825 12 24V6C12 4.35 12.5875 2.9375 13.7625 1.7625C14.9375 0.5875 16.35 0 18 0C19.65 0 21.0625 0.5875 22.2375 1.7625C23.4125 2.9375 24 4.35 24 6V30H21V6C21 5.175 20.7062 4.46875 20.1187 3.88125C19.5312 3.29375 18.825 3 18 3C17.175 3 16.4688 3.29375 15.8813 3.88125C15.2938 4.46875 15 5.175 15 6V24C15 25.65 14.4125 27.0625 13.2375 28.2375C12.0625 29.4125 10.65 30 9 30ZM4.2 21H4.8L5.7 12H3.3L4.2 21ZM4.8 12H4.2H3.3H5.7H4.8Z" fill="#FF6F61"/>
</svg>
